<?xml version="1.0" encoding="UTF-8" standalone="no"?>
<!-- Created with Inkscape (http://www.inkscape.org/) -->

<svg
   width="1280"
   height="1280"
   viewBox="0 0 338.66666 338.66668"
   version="1.1"
   id="svg5"
   inkscape:version="1.1.1 (1:1.1+202109281949+c3084ef5ed)"
   sodipodi:docname="logo.svg"
   xmlns:inkscape="http://www.inkscape.org/namespaces/inkscape"
   xmlns:sodipodi="http://sodipodi.sourceforge.net/DTD/sodipodi-0.dtd"
   xmlns="http://www.w3.org/2000/svg"
   xmlns:svg="http://www.w3.org/2000/svg">
  <sodipodi:namedview
     id="namedview7"
     pagecolor="#ffffff"
     bordercolor="#666666"
     borderopacity="1.0"
     inkscape:pageshadow="2"
     inkscape:pageopacity="0.0"
     inkscape:pagecheckerboard="0"
     inkscape:document-units="mm"
     showgrid="false"
     units="px"
     width="1280px"
     inkscape:zoom="0.26677458"
     inkscape:cx="241.77716"
     inkscape:cy="695.34361"
     inkscape:window-width="1920"
     inkscape:window-height="1024"
     inkscape:window-x="0"
     inkscape:window-y="28"
     inkscape:window-maximized="1"
     inkscape:current-layer="layer1" />
  <defs
     id="defs2" />
  <g
     inkscape:label="Camada 1"
     inkscape:groupmode="layer"
     id="layer1">
    <g
       id="padrao"
       transform="matrix(0.89094566,0,0,0.89094566,15.535164,25.436773)">
      <path
         id="path846-3"
         style="opacity:0.985219;fill:#008000;stroke-width:0.442;stroke-linecap:round;stroke-linejoin:round;paint-order:stroke fill markers"
         d="M 300.56794,179.86024 A 104.23449,104.23449 0 0 1 196.33345,284.09473 104.23449,104.23449 0 0 1 92.098961,179.86024 104.23449,104.23449 0 0 1 196.33345,75.625755 104.23449,104.23449 0 0 1 300.56794,179.86024 Z" />
      <path
         id="path846"
         style="opacity:0.985219;fill:#00ff00;stroke-width:0.442;stroke-linecap:round;stroke-linejoin:round;paint-order:stroke fill markers"
         d="M 253.14806,143.15959 A 104.23449,104.23449 0 0 1 148.91357,247.39408 104.23449,104.23449 0 0 1 44.679085,143.15959 104.23449,104.23449 0 0 1 148.91357,38.925102 104.23449,104.23449 0 0 1 253.14806,143.15959 Z" />
      <path
         id="path846-3-6"
         style="opacity:0.985219;fill:#ff6600;stroke-width:0.35905;stroke-linecap:round;stroke-linejoin:round;paint-order:stroke fill markers"
         d="M 300.39455,133.36678 A 84.672821,84.672821 0 0 1 215.72173,218.0396 84.672821,84.672821 0 0 1 131.0489,133.36678 84.672821,84.672821 0 0 1 215.72173,48.693954 84.672821,84.672821 0 0 1 300.39455,133.36678 Z" />
      <g
         aria-label="do
que"
         id="text3030"
         style="font-weight:bold;font-size:53.876px;line-height:0.65;font-family:Boston;-inkscape-font-specification:'Boston Bold';fill:#ffffff;stroke-width:1.3469">
        <path
           d="m 179.71438,94.896962 h -5.01047 c -0.64651,0 -0.96976,0.377132 -0.96976,0.969768 v 15.51629 c -1.77791,-1.93954 -4.36396,-3.28644 -7.6504,-3.28644 -6.84225,0 -11.90659,5.54923 -11.90659,12.87637 0,7.32713 5.27985,12.87636 12.1221,12.87636 3.71744,0 6.51899,-1.5624 8.45853,-3.71744 l 0.16163,2.26279 c 0.0539,0.64651 0.43101,0.96977 1.02364,0.96977 h 3.77132 c 0.64651,0 1.02365,-0.37714 1.02365,-0.96977 V 95.86673 c 0,-0.592636 -0.37714,-0.969768 -1.02365,-0.969768 z m -12.06822,32.541108 c -3.60969,0 -6.35737,-2.74768 -6.35737,-6.46512 0,-3.66357 2.74768,-6.46512 6.35737,-6.46512 3.87907,0 6.35737,2.80155 6.35737,6.46512 0,3.77132 -2.4783,6.46512 -6.35737,6.46512 z"
           id="path1060" />
        <path
           d="m 199.43295,133.84931 c 7.43488,0 13.41512,-5.54923 13.41512,-12.87636 0,-7.32714 -5.98024,-12.87637 -13.41512,-12.87637 -7.43489,0 -13.41513,5.54923 -13.41513,12.87637 0,7.32713 5.98024,12.87636 13.41513,12.87636 z m 0,-6.41124 c -3.55582,0 -6.30349,-2.85543 -6.30349,-6.46512 0,-3.55582 2.74767,-6.46512 6.30349,-6.46512 3.60969,0 6.30349,2.9093 6.30349,6.46512 0,3.60969 -2.6938,6.46512 -6.30349,6.46512 z"
           id="path1062" />
        <path
           d="m 179.71438,143.60086 h -3.93295 c -0.59263,0 -0.96976,0.32326 -1.02364,0.96977 l -0.16163,2.10117 c -1.93953,-2.04729 -4.68721,-3.55582 -8.2969,-3.55582 -6.84225,0 -12.1221,5.54923 -12.1221,12.87636 0,7.32714 5.06434,12.87637 11.90659,12.87637 3.28644,0 5.87249,-1.3469 7.6504,-3.23256 v 12.28373 c 0,0.59263 0.32325,0.96976 0.96976,0.96976 h 5.01047 c 0.64651,0 1.02365,-0.37713 1.02365,-0.96976 v -33.34925 c 0,-0.59263 -0.37714,-0.96977 -1.02365,-0.96977 z m -12.06822,18.8566 c -3.60969,0 -6.35737,-2.80155 -6.35737,-6.46512 0,-3.71744 2.74768,-6.46512 6.35737,-6.46512 3.87907,0 6.35737,2.6938 6.35737,6.46512 0,3.66357 -2.4783,6.46512 -6.35737,6.46512 z"
           id="path1064" />
        <path
           d="m 210.96241,143.60086 h -5.06434 c -0.59264,0 -0.96977,0.37714 -0.96977,0.96977 v 11.52947 c 0,3.28643 -2.04729,5.98023 -5.54923,5.98023 -3.07093,0 -5.22597,-2.47829 -5.22597,-6.19574 v -11.31396 c 0,-0.59263 -0.37713,-0.96977 -1.02364,-0.96977 h -5.06435 c -0.59263,0 -0.96977,0.37714 -0.96977,0.96977 v 12.71474 c 0,6.95 4.74109,11.58334 11.42171,11.58334 3.44807,0 6.14187,-1.56241 7.59652,-3.71745 l 0.16163,2.2628 c 0.0539,0.59263 0.43101,0.96976 1.02364,0.96976 h 3.66357 c 0.64651,0 1.02364,-0.37713 1.02364,-0.96976 v -22.84343 c 0,-0.59263 -0.37713,-0.96977 -1.02364,-0.96977 z"
           id="path1066" />
        <path
           d="m 242.58762,156.04622 c 0,-7.43489 -4.84884,-12.93024 -12.33761,-12.93024 -7.59651,0 -12.93024,5.65698 -12.93024,12.87636 0,7.27326 5.76474,12.87637 13.63063,12.87637 4.84884,0 7.8659,-1.50853 9.53605,-2.80155 0.48489,-0.37714 0.53876,-0.86202 0.21551,-1.40078 l -1.88566,-3.34031 c -0.32326,-0.59264 -0.80814,-0.64651 -1.3469,-0.26938 -1.18527,0.86201 -2.96318,1.88566 -5.76473,1.88566 -3.77132,0 -6.519,-2.10117 -7.32714,-5.01047 h 17.18644 c 0.59264,0 0.9159,-0.37713 0.96977,-0.96977 0.0539,-0.32325 0.0539,-0.59263 0.0539,-0.91589 z m -12.06823,-7.32714 c 2.80156,0 4.90272,1.88566 5.33373,4.52559 l 0.0539,0.16163 h -11.52946 c 0.75426,-3.01706 3.01706,-4.68722 6.14186,-4.68722 z"
           id="path1068" />
      </g>
    </g>
  </g>
</svg>
